<?xml version="1.0" encoding="UTF-8"?>
<!DOCTYPE svg  PUBLIC '-//W3C//DTD SVG 1.1//EN'  'http://www.w3.org/Graphics/SVG/1.1/DTD/svg11.dtd'>
<svg enable-background="new 0 0 64 64" version="1.1" viewBox="0 0 64 64" xml:space="preserve" xmlns="http://www.w3.org/2000/svg"><path d="m55.736 13.636-4.368-4.362c-0.451-0.451-1.044-0.677-1.636-0.677s-1.184 0.225-1.635 0.676l-3.494 3.484 7.639 7.626 3.494-3.483c0.903-0.902 0.903-2.365 0-3.264z"/><polygon points="21.922 35.396 29.562 43.023 50.607 22.017 42.967 14.39"/><polygon points="20.273 37.028 18.642 46.28 27.913 44.654"/><path d="M41.393,50.403H12.587V21.597h20.329l5.01-5H10.82c-1.779,0-3.234,1.455-3.234,3.234v32.339   c0,1.779,1.455,3.234,3.234,3.234h32.339c1.779,0,3.234-1.455,3.234-3.234V29.049l-5,4.991V50.403z"/></svg>
