<?xml version="1.0" ?>
<svg id="Line" style="enable-background:new 0 0 128 128;" version="1.1" viewBox="0 0 128 128" xml:space="preserve"
    xmlns="http://www.w3.org/2000/svg" xmlns:xlink="http://www.w3.org/1999/xlink">
    <g id="notes-icon" fill="black" opacity=".08">
        <g id="notes-icon-notes">
            <path
                d="M84,5h-1V4c0-1.654-1.346-3-3-3s-3,1.346-3,3v1h-6V4c0-1.654-1.346-3-3-3s-3,1.346-3,3v1h-6V4c0-1.654-1.346-3-3-3   s-3,1.346-3,3v1h-6V4c0-1.654-1.346-3-3-3s-3,1.346-3,3v1h-6V4c0-1.654-1.346-3-3-3s-3,1.346-3,3v1h-6V4c0-1.654-1.346-3-3-3   s-3,1.346-3,3v1h-1C10.673,5,6,9.673,6,15v8.826C5.989,23.885,5.965,23.938,5.965,24S5.989,24.115,6,24.174V117   c0,5.327,4.673,10,10,10h64c0.13,0,0.257-0.028,0.376-0.076c0.049-0.02,0.087-0.055,0.131-0.082   c0.058-0.035,0.121-0.061,0.171-0.107l13-12c0.005-0.005,0.007-0.011,0.011-0.016c0.074-0.071,0.128-0.158,0.177-0.249   c0.014-0.027,0.038-0.047,0.05-0.075C93.97,114.274,94,114.141,94,114V15C94,9.673,89.327,5,84,5z M83,14c0,1.654-1.346,3-3,3   s-3-1.346-3-3c0-0.543,0.148-1.057,0.414-1.506C77.934,13.39,78.892,14,80,14s2.066-0.61,2.586-1.506   C82.852,12.943,83,13.457,83,14z M79,4c0-0.551,0.449-1,1-1s1,0.449,1,1v7c0,0.551-0.449,1-1,1s-1-0.449-1-1V4z M71,14   c0,1.654-1.346,3-3,3s-3-1.346-3-3c0-0.543,0.148-1.057,0.414-1.506C65.934,13.39,66.892,14,68,14s2.066-0.61,2.586-1.506   C70.852,12.943,71,13.457,71,14z M67,4c0-0.551,0.449-1,1-1s1,0.449,1,1v7c0,0.551-0.449,1-1,1s-1-0.449-1-1V4z M59,14   c0,1.654-1.346,3-3,3s-3-1.346-3-3c0-0.543,0.148-1.057,0.414-1.506C53.934,13.39,54.892,14,56,14s2.066-0.61,2.586-1.506   C58.852,12.943,59,13.457,59,14z M55,4c0-0.551,0.449-1,1-1s1,0.449,1,1v7c0,0.551-0.449,1-1,1s-1-0.449-1-1V4z M47,14   c0,1.654-1.346,3-3,3s-3-1.346-3-3c0-0.543,0.148-1.057,0.414-1.506C41.934,13.39,42.892,14,44,14s2.066-0.61,2.586-1.506   C46.852,12.943,47,13.457,47,14z M43,4c0-0.551,0.449-1,1-1s1,0.449,1,1v7c0,0.551-0.449,1-1,1s-1-0.449-1-1V4z M35,14   c0,1.654-1.346,3-3,3s-3-1.346-3-3c0-0.543,0.148-1.057,0.414-1.506C29.934,13.39,30.892,14,32,14s2.066-0.61,2.586-1.506   C34.852,12.943,35,13.457,35,14z M31,4c0-0.551,0.449-1,1-1s1,0.449,1,1v7c0,0.551-0.449,1-1,1s-1-0.449-1-1V4z M23,14   c0,1.654-1.346,3-3,3s-3-1.346-3-3c0-0.543,0.148-1.057,0.414-1.506C17.934,13.39,18.892,14,20,14s2.066-0.61,2.586-1.506   C22.852,12.943,23,13.457,23,14z M19,4c0-0.551,0.449-1,1-1s1,0.449,1,1v7c0,0.551-0.449,1-1,1s-1-0.449-1-1V4z M8,117V25h84v88h-6   c-3.86,0-7,3.14-7,7v5H16C11.813,125,8,121.187,8,117z M90.442,115L81,123.716V120c0-2.757,2.243-5,5-5H90.442z M92,23H8v-8   c0-4.187,3.813-8,8-8h1v3.025c-1.245,0.939-2,2.412-2,3.975c0,2.757,2.243,5,5,5s5-2.243,5-5c0-1.563-0.755-3.035-2-3.975V7h6   v3.025c-1.245,0.939-2,2.412-2,3.975c0,2.757,2.243,5,5,5s5-2.243,5-5c0-1.563-0.755-3.035-2-3.975V7h6v3.025   c-1.245,0.939-2,2.412-2,3.975c0,2.757,2.243,5,5,5s5-2.243,5-5c0-1.563-0.755-3.035-2-3.975V7h6v3.025   c-1.245,0.939-2,2.412-2,3.975c0,2.757,2.243,5,5,5s5-2.243,5-5c0-1.563-0.755-3.035-2-3.975V7h6v3.025   c-1.245,0.939-2,2.412-2,3.975c0,2.757,2.243,5,5,5s5-2.243,5-5c0-1.563-0.755-3.035-2-3.975V7h6v3.025   c-1.245,0.939-2,2.412-2,3.975c0,2.757,2.243,5,5,5s5-2.243,5-5c0-1.563-0.755-3.035-2-3.975V7h1c4.187,0,8,3.813,8,8V23z" />
            <path d="M15,43h70c0.552,0,1-0.448,1-1s-0.448-1-1-1H15c-0.552,0-1,0.448-1,1S14.448,43,15,43z" />
            <path d="M15,54h70c0.552,0,1-0.448,1-1s-0.448-1-1-1H15c-0.552,0-1,0.448-1,1S14.448,54,15,54z" />
            <path d="M15,65h70c0.552,0,1-0.448,1-1s-0.448-1-1-1H15c-0.552,0-1,0.448-1,1S14.448,65,15,65z" />
            <path d="M15,76h70c0.552,0,1-0.448,1-1s-0.448-1-1-1H15c-0.552,0-1,0.448-1,1S14.448,76,15,76z" />
            <path d="M15,87h70c0.552,0,1-0.448,1-1s-0.448-1-1-1H15c-0.552,0-1,0.448-1,1S14.448,87,15,87z" />
            <path d="M15,98h70c0.552,0,1-0.448,1-1s-0.448-1-1-1H15c-0.552,0-1,0.448-1,1S14.448,98,15,98z" />
            <path
                d="M86,108c0-0.552-0.448-1-1-1H15c-0.552,0-1,0.448-1,1s0.448,1,1,1h70C85.552,109,86,108.552,86,108z" />

        </g>
        <path id="notes-icon-pencil"
            d="M113,1h-6c-3.364,0-6,2.636-6,6v104c0,0.009,0.005,0.017,0.005,0.026c0.004,0.129,0.027,0.253,0.075,0.365   c0,0.001,0,0.002,0,0.002l5.975,13.941c0.292,0.952,1.294,1.584,2.643,1.658c0.081,0.004,0.162,0.007,0.244,0.007   c1.219,0,2.56-0.492,2.977-1.606l6-14c0-0.001,0-0.001,0-0.002c0.052-0.121,0.081-0.253,0.081-0.392V7C119,3.636,116.364,1,113,1z    M114.555,116.501l-2-1.333c-0.398-0.264-0.925-0.212-1.262,0.125L110,116.585l-1.293-1.293c-0.336-0.337-0.865-0.389-1.262-0.125   l-2,1.333L103.516,112h12.967L114.555,116.501z M108,110V21h4v89H108z M103,110V21h3v89H103z M113.002,19c-0.001,0-0.002,0-0.002,0   s-0.002,0-0.002,0h-5.995c-0.001,0-0.002,0-0.002,0s-0.002,0-0.002,0H103v-5h14v5H113.002z M114,110V21h3v89H114z M107,3h6   c2.243,0,4,1.757,4,4v5h-14V7C103,4.757,104.757,3,107,3z M111.064,124.648c-0.032,0.084-0.313,0.276-0.819,0.334   c-0.669,0.079-1.2-0.125-1.276-0.23c-0.013-0.05-0.03-0.099-0.05-0.147l-2.672-6.235l1.626-1.084l1.42,1.42   c0.391,0.391,1.023,0.391,1.414,0l1.42-1.42l1.626,1.084L111.064,124.648z" />
    </g>
</svg>